<svg width="32" height="32" viewBox="0 0 32 32" fill="none" xmlns="http://www.w3.org/2000/svg">
<path d="M12 2.16663H20C23.5626 2.16663 25.9861 2.93009 27.5283 4.47229C29.0704 6.01445 29.8339 8.43733 29.834 11.9996V19.9996C29.834 23.5622 29.0705 25.9858 27.5283 27.528C25.9861 29.0702 23.5626 29.8336 20 29.8336H12C8.4377 29.8336 6.01482 29.07 4.47266 27.528C2.93045 25.9858 2.16699 23.5622 2.16699 19.9996V11.9996C2.16704 8.43721 2.9305 6.01445 4.47266 4.47229C6.01481 2.93013 8.43757 2.16667 12 2.16663ZM12 3.16663C8.89156 3.16666 6.63513 3.71411 5.1748 5.17444C3.71448 6.63476 3.16703 8.89119 3.16699 11.9996V19.9996C3.16699 23.108 3.71467 25.3644 5.1748 26.8248C6.63513 28.2852 8.89156 28.8336 12 28.8336H20C23.1086 28.8336 25.3648 28.2852 26.8252 26.8248C28.2856 25.3645 28.834 23.1082 28.834 19.9996V11.9996C28.8339 8.89119 28.2855 6.63476 26.8252 5.17444C25.3648 3.71431 23.1084 3.16663 20 3.16663H12Z" fill="#F9F9F9" stroke="black"/>
<path d="M12 7.5C13.7504 7.50018 15.166 8.91658 15.166 10.667C15.1658 12.4173 13.7503 13.8328 12 13.833C10.2496 13.833 8.83318 12.4174 8.83301 10.667C8.83301 8.91647 10.2495 7.5 12 7.5ZM12 8.5C10.8039 8.5 9.83301 9.47085 9.83301 10.667C9.83318 11.863 10.804 12.833 12 12.833C13.1959 12.8328 14.1658 11.8629 14.166 10.667C14.166 9.47096 13.196 8.50018 12 8.5Z" fill="#F9F9F9" stroke="black"/>
<path d="M23.0859 16.2858C24.2345 15.2998 26.0215 15.2366 27.2627 16.1022L27.5029 16.2877L29.6748 18.153C29.8796 18.334 29.9056 18.6443 29.7266 18.86C29.5675 19.0402 29.3087 19.0842 29.1016 18.9703L29.0166 18.9108L26.8457 17.0475H26.8467C25.9926 16.3129 24.5817 16.3129 23.7275 17.0475L18.1816 21.8073C17.033 22.7933 15.2461 22.8564 14.0049 21.9908L13.7646 21.8063L13.3301 21.4244L13.3232 21.4186C12.5854 20.7932 11.4305 20.6983 10.5771 21.1774L10.415 21.278L3.85547 25.6823C3.76287 25.7385 3.65523 25.7662 3.56055 25.7662C3.40062 25.7662 3.23947 25.6845 3.14941 25.5494L3.14746 25.5465C2.99655 25.3232 3.05556 25.011 3.28809 24.858L3.29199 24.8551L9.86523 20.442H9.86621L9.86719 20.441C11.0422 19.6469 12.6451 19.6894 13.7773 20.4908L13.9971 20.6617L14.4307 21.0426L14.4346 21.0455C14.8724 21.4221 15.4438 21.5963 15.9922 21.5963C16.5403 21.5963 17.1101 21.4215 17.543 21.0416L23.0859 16.2858Z" fill="#F9F9F9" stroke="black"/>
</svg>
